PathFileType	4	(X/Y/Z)	C:/Users/cpontonn/Documents/TRAVAIL - COURS/FORMATION DOCTORALE/COURS 2E/2023/TP OPENSIM/DATA/marche.trc	
DataRate	CameraRate	NumFrames	NumMarkers	Units	OrigDataRate	OrigDataStartFrame	OrigNumFrames	
100.00	100.00	4	38	mm	100.00	218	414	
Frame#	Time	LFHD			LBHD			RFHD			RBHD			C7			T10			CLAV			STRN			LSHO			LRAD			LHUM			LWRB			LWRA			LCAR			RSHO			RRAD			RHUM			RWRB			RWRA			RCAR			LFWT			LBWT			RFWT			RBWT			LKNE			LKNI			LANE			LHEE			LANI			LTAR			LTOE			RKNE			RKNI			RANE			RHEE			RANI			RTAR			RTOE			
		X1	Y1	Z1	X2	Y2	Z2	X3	Y3	Z3	X4	Y4	Z4	X5	Y5	Z5	X6	Y6	Z6	X7	Y7	Z7	X8	Y8	Z8	X9	Y9	Z9	X10	Y10	Z10	X11	Y11	Z11	X12	Y12	Z12	X13	Y13	Z13	X14	Y14	Z14	X15	Y15	Z15	X16	Y16	Z16	X17	Y17	Z17	X18	Y18	Z18	X19	Y19	Z19	X20	Y20	Z20	X21	Y21	Z21	X22	Y22	Z22	X23	Y23	Z23	X24	Y24	Z24	X25	Y25	Z25	X26	Y26	Z26	X27	Y27	Z27	X28	Y28	Z28	X29	Y29	Z29	X30	Y30	Z30	X31	Y31	Z31	X32	Y32	Z32	X33	Y33	Z33	X34	Y34	Z34	X35	Y35	Z35	X36	Y36	Z36	X37	Y37	Z37	X38	Y38	Z38	

104	1.030	1418.89209	191.91017	1702.00293	1565.62732	192.48521	1696.91614	1413.62122	326.60632	1689.00720	1575.29431	318.07144	1678.87231	1645.74438	264.00720	1572.90137	1763.69910	249.56879	1364.48608	1537.90796	256.48352	1469.01514	1533.36194	244.33003	1287.92310	1604.46436	58.82963	1539.83948	1665.29590	-29.62034	1178.47144	1686.55396	32.93939	1179.49097	1562.93372	-71.34286	945.46173	1520.66687	-6.45981	946.96680	1490.76233	-74.23013	885.52856	1600.14441	450.04916	1502.98486	1722.89807	495.74069	1145.11414	1749.03589	441.86652	1159.42773	1706.40344	515.08527	885.92230	1668.55090	452.85266	877.44775	1683.57385	508.48346	802.08691	1544.42847	130.21310	1019.11572	1732.54932	215.41562	1058.28271	1527.62341	321.23059	1029.48193	1728.45776	296.82797	1056.89160	1762.90881	59.84263	527.52661	1761.48071	170.44017	484.19229	2093.60938	118.95459	210.91016	2201.85962	179.16589	229.90999	2075.93750	205.79984	213.58620	2051.87183	112.44492	44.29507	2006.54956	199.45001	25.02842	1420.50281	387.48447	553.94470	1410.87439	291.52628	513.38373	1390.68384	360.79303	89.88297	1464.77856	292.37390	25.28111	1379.35168	270.80347	117.38889	1233.18604	386.14908	43.15718	1174.72473	304.49243	55.97520 
105	1.040	1404.34253	196.62924	1705.15405	1551.08240	196.20741	1700.18018	1399.91418	331.18915	1690.56677	1561.56592	321.57639	1680.65674	1631.90918	266.17401	1575.24304	1749.08728	250.70369	1366.82483	1523.49170	258.06305	1472.02539	1519.18201	245.53835	1291.13391	1590.30188	60.83139	1543.28540	1654.68506	-25.64030	1182.34509	1675.41248	37.00214	1183.91248	1558.30920	-69.16698	946.55005	1515.40686	-4.45701	946.84045	1489.09387	-73.42006	884.77173	1585.75476	451.71317	1505.18652	1706.24976	496.96396	1146.76099	1732.67273	443.27625	1161.06873	1688.69812	516.51282	887.80292	1651.43848	453.88583	879.20020	1666.08972	509.50226	803.65106	1529.49768	132.08797	1021.52808	1717.53345	215.62575	1061.03162	1512.51904	322.68878	1032.90186	1713.19812	297.03250	1060.28882	1737.94653	57.93188	526.85388	1734.07983	167.81815	481.92029	2074.41040	117.97997	219.10022	2178.32349	180.94739	247.59180	2054.45923	204.75897	220.83458	2048.33984	112.65249	47.35705	2002.92517	198.37195	24.42247	1410.71326	388.83948	554.13519	1400.84912	292.55322	513.73199	1389.39087	360.83145	89.61076	1464.57715	292.57050	25.64812	1378.23413	270.77432	117.13951	1232.41113	386.29001	42.01887	1174.13708	303.98032	53.32036 
106	1.050	1389.83484	201.28215	1708.20557	1535.47888	198.64728	1703.14575	1386.37549	335.74228	1692.04395	1547.93140	324.77841	1682.37439	1618.10718	268.02081	1577.60217	1734.80969	251.84714	1369.19641	1509.11353	259.56274	1474.89758	1504.62744	246.59596	1294.20532	1576.11853	62.58149	1546.57373	1644.24146	-22.04690	1186.12305	1664.50952	40.63015	1188.43787	1554.88635	-65.75629	948.11407	1510.93945	-2.12675	946.79663	1487.16113	-70.98299	884.12897	1571.39404	453.20007	1507.52148	1689.84851	498.32758	1148.51306	1716.49585	444.72104	1162.77661	1670.59436	517.96777	889.80939	1633.87646	455.04340	881.27948	1647.99976	510.53946	805.42676	1514.85071	133.66191	1024.16357	1702.79211	216.52065	1063.79407	1497.48901	323.89499	1035.93152	1698.11902	297.89838	1063.62378	1712.25134	56.49901	526.25378	1706.04333	165.79782	479.96710	2053.61035	117.04784	226.50168	2151.85425	182.99037	263.56393	2031.07996	203.84995	226.74615	2043.02551	112.42570	51.56498	1998.60669	197.13786	23.51121	1401.58679	389.64383	553.72589	1392.31470	292.88437	513.21436	1388.66931	360.34326	89.43974	1464.53027	292.60681	25.64577	1377.66345	270.20221	116.60839	1231.96057	385.96622	41.63764	1173.97595	303.07144	51.44448 
107	1.060	1374.29932	205.88921	1711.35156	1520.90222	201.86690	1706.26135	1372.93457	340.12076	1693.45728	1534.35938	327.74234	1684.16431	1604.26062	269.55759	1579.98511	1720.70093	253.08784	1371.61096	1494.95227	260.76526	1477.66528	1490.28552	247.52968	1297.19324	1561.92822	64.05141	1549.57788	1633.89905	-18.85217	1189.77234	1653.81323	43.72115	1192.81677	1551.04578	-62.77188	949.60028	1506.57092	0.47353	946.82654	1485.61316	-68.70985	883.42883	1556.99280	454.50485	1509.89136	1673.64966	499.72128	1150.31067	1700.53271	446.24692	1164.47888	1652.26709	519.32098	891.75647	1615.91492	456.23950	883.42200	1629.55884	511.63019	807.36774	1500.49890	134.96031	1026.81653	1688.34021	218.04933	1066.51184	1482.78381	324.93988	1038.60168	1683.31104	299.38940	1066.84863	1686.10693	55.57272	525.94769	1677.87830	164.22969	478.55328	2031.79944	116.94701	233.52298	2123.24487	185.01205	277.83585	2006.73560	203.22562	230.64253	2037.97900	112.17669	55.59388	1993.68738	195.88287	22.17104	1392.69958	389.72989	552.87683	1384.27820	292.16721	512.35150	1388.16199	359.68793	89.37166	1464.51111	292.52344	25.55371	1377.31201	269.47943	116.08245	1231.71863	385.68347	41.49863	1173.81897	302.34470	49.91690 
